<?xml version="1.0" encoding="utf-8"?>
<!-- Generator: Adobe Illustrator 21.1.0, SVG Export Plug-In . SVG Version: 6.00 Build 0)  -->
<svg version="1.1" id="Layer_1" xmlns="http://www.w3.org/2000/svg" xmlns:xlink="http://www.w3.org/1999/xlink" x="0px" y="0px"
	 viewBox="0 0 50 100" style="enable-background:new 0 0 50 100;" xml:space="preserve">
<style type="text/css">
	.st0{fill:#0084FF;}
	.st1{fill:#CCCCCC;}
	.st2{fill:#FFFFFF;}
</style>
<g>
	<path class="st0" d="M16.9,86h16.3c1.3,0,2.3,1.1,2.3,2.5s-1,2.5-2.3,2.5H16.9c-1.3,0-2.3-1.1-2.3-2.5S15.6,86,16.9,86z"/>
</g>
<g>
	<g>
		<path class="st0" d="M16.9,36h16.3c1.3,0,2.3,1.1,2.3,2.5s-1,2.5-2.3,2.5H16.9c-1.3,0-2.3-1.1-2.3-2.5S15.6,36,16.9,36z"/>
	</g>
</g>
<path class="st1" d="M34.7,10.8H15.3c-0.8,0-1.4,0.6-1.4,1.4v19.4c0,0.8,0.6,1.4,1.4,1.4h19.4c0.8,0,1.4-0.6,1.4-1.4V12.2
	C36.1,11.4,35.5,10.8,34.7,10.8z M27.8,27.6l-1.1,1.3l-1.4,1.6c-0.2,0.2-0.4,0.2-0.6,0l-1.4-1.6l-1.1-1.3c-0.2-0.2,0-0.6,0.3-0.6H25
	h2.5C27.9,26.9,28,27.3,27.8,27.6z M32,24.1H18c-0.6,0-1-0.5-1-1c0-0.6,0.5-1,1-1h14c0.6,0,1,0.5,1,1C33,23.6,32.6,24.1,32,24.1z
	 M32,19.9H18c-0.6,0-1-0.5-1-1c0-0.6,0.5-1,1-1h14c0.6,0,1,0.5,1,1C33,19.4,32.6,19.9,32,19.9z M32,15.7H18c-0.6,0-1-0.5-1-1
	c0-0.6,0.5-1,1-1h14c0.6,0,1,0.5,1,1C33,15.2,32.6,15.7,32,15.7z"/>
<path class="st2" d="M34.7,60.8H15.3c-0.8,0-1.4,0.6-1.4,1.4v19.4c0,0.8,0.6,1.4,1.4,1.4h19.4c0.8,0,1.4-0.6,1.4-1.4V62.2
	C36.1,61.4,35.5,60.8,34.7,60.8z M27.8,77.6l-1.1,1.3l-1.4,1.6c-0.2,0.2-0.4,0.2-0.6,0l-1.4-1.6l-1.1-1.3c-0.2-0.2,0-0.6,0.3-0.6H25
	h2.5C27.9,76.9,28,77.3,27.8,77.6z M32,74.1H18c-0.6,0-1-0.5-1-1c0-0.6,0.5-1,1-1h14c0.6,0,1,0.5,1,1C33,73.6,32.6,74.1,32,74.1z
	 M32,69.9H18c-0.6,0-1-0.5-1-1c0-0.6,0.5-1,1-1h14c0.6,0,1,0.5,1,1C33,69.4,32.6,69.9,32,69.9z M32,65.7H18c-0.6,0-1-0.5-1-1
	c0-0.6,0.5-1,1-1h14c0.6,0,1,0.5,1,1C33,65.2,32.6,65.7,32,65.7z"/>
</svg>
