<?xml version="1.0" encoding="utf-8"?>
<!-- Generator: Adobe Illustrator 21.1.0, SVG Export Plug-In . SVG Version: 6.00 Build 0)  -->
<svg version="1.1" id="Layer_1" xmlns="http://www.w3.org/2000/svg" xmlns:xlink="http://www.w3.org/1999/xlink" x="0px" y="0px"
	 viewBox="0 0 50 100" style="enable-background:new 0 0 50 100;" xml:space="preserve">
<style type="text/css">
	.st0{fill:#FFC600;}
	.st1{fill:#CCCCCC;}
	.st2{fill:#FFFFFF;}
</style>
<g>
	<g>
		<path class="st0" d="M16.9,86h16.3c1.3,0,2.3,1.1,2.3,2.5s-1,2.5-2.3,2.5H16.9c-1.3,0-2.3-1.1-2.3-2.5S15.6,86,16.9,86z"/>
	</g>
</g>
<g>
	<g>
		<g>
			<path class="st0" d="M16.9,36h16.3c1.3,0,2.3,1.1,2.3,2.5s-1,2.5-2.3,2.5H16.9c-1.3,0-2.3-1.1-2.3-2.5S15.6,36,16.9,36z"/>
		</g>
	</g>
</g>
<path class="st1" d="M21.8,31.6l-6.5-6.5c-0.6-0.6-0.6-1.5,0-2.1l0,0c0.6-0.6,1.5-0.6,2.1,0l5,5l10.3-10.3c0.6-0.6,1.5-0.6,2.1,0
	l0,0c0.6,0.6,0.6,1.5,0,2.1L22.9,31.6C22.6,31.9,22.1,31.9,21.8,31.6z"/>
<path class="st2" d="M21.8,81.6l-6.5-6.5c-0.6-0.6-0.6-1.5,0-2.1l0,0c0.6-0.6,1.5-0.6,2.1,0l5,5l10.3-10.3c0.6-0.6,1.5-0.6,2.1,0
	l0,0c0.6,0.6,0.6,1.5,0,2.1L22.9,81.6C22.6,81.9,22.1,81.9,21.8,81.6z"/>
</svg>
