<?xml version="1.0" encoding="utf-8"?>
<!-- Generator: Adobe Illustrator 21.1.0, SVG Export Plug-In . SVG Version: 6.00 Build 0)  -->
<svg version="1.1" id="Layer_1" xmlns="http://www.w3.org/2000/svg" xmlns:xlink="http://www.w3.org/1999/xlink" x="0px" y="0px"
	 viewBox="0 0 50 100" style="enable-background:new 0 0 50 100;" xml:space="preserve">
<style type="text/css">
	.st0{fill:#FF6D78;}
	.st1{fill:#CCCCCC;}
	.st2{fill:#FFFFFF;}
</style>
<g>
	<g>
		<path class="st0" d="M16.9,86h16.3c1.3,0,2.3,1.1,2.3,2.5s-1,2.5-2.3,2.5H16.9c-1.3,0-2.3-1.1-2.3-2.5S15.6,86,16.9,86z"/>
	</g>
</g>
<g>
	<g>
		<g>
			<path class="st0" d="M16.9,36h16.3c1.3,0,2.3,1.1,2.3,2.5s-1,2.5-2.3,2.5H16.9c-1.3,0-2.3-1.1-2.3-2.5C14.5,37.1,15.6,36,16.9,36
				z"/>
		</g>
	</g>
</g>
<g>
	<path class="st1" d="M34.5,11.1h-19c-0.7,0-1.3-0.6-1.3-1.3l0,0c0-0.7,0.6-1.3,1.3-1.3h19c0.7,0,1.3,0.6,1.3,1.3l0,0
		C35.8,10.5,35.2,11.1,34.5,11.1z"/>
	<path class="st1" d="M25,9.8L25,9.8c-0.7,0-1.3-0.6-1.3-1.3v-1c0-0.7,0.6-1.3,1.3-1.3l0,0c0.7,0,1.3,0.6,1.3,1.3v1
		C26.2,9.3,25.7,9.8,25,9.8z"/>
	<path class="st1" d="M15.3,13.1v15.6c0,0.9,0.3,1.8,0.9,2.4s1.4,1,2.3,1h13c0,0,0,0,0.1,0c0.8,0,1.7-0.3,2.3-0.9
		c0.6-0.6,1-1.4,1-2.3V13.1L15.3,13.1z M23,25.1c0,0.6-0.4,1-1,1s-1-0.4-1-1v-9c0-0.6,0.4-1,1-1s1,0.4,1,1V25.1z M29,25.1
		c0,0.6-0.4,1-1,1s-1-0.4-1-1v-9c0-0.6,0.4-1,1-1s1,0.4,1,1V25.1z"/>
</g>
<g>
	<path class="st2" d="M34.5,61.1h-19c-0.7,0-1.3-0.6-1.3-1.3l0,0c0-0.7,0.6-1.3,1.3-1.3h19c0.7,0,1.3,0.6,1.3,1.3l0,0
		C35.8,60.5,35.2,61.1,34.5,61.1z"/>
	<path class="st2" d="M25,59.8L25,59.8c-0.7,0-1.3-0.6-1.3-1.3v-1c0-0.7,0.6-1.3,1.3-1.3l0,0c0.7,0,1.3,0.6,1.3,1.3v1
		C26.2,59.3,25.7,59.8,25,59.8z"/>
	<path class="st2" d="M15.3,63.1v15.6c0,0.9,0.3,1.8,0.9,2.4s1.4,1,2.3,1h13c0,0,0,0,0.1,0c0.8,0,1.7-0.3,2.3-0.9
		c0.6-0.6,1-1.4,1-2.3V63.1L15.3,63.1z M23,75.1c0,0.6-0.4,1-1,1s-1-0.4-1-1v-9c0-0.6,0.4-1,1-1s1,0.4,1,1V75.1z M29,75.1
		c0,0.6-0.4,1-1,1s-1-0.4-1-1v-9c0-0.6,0.4-1,1-1s1,0.4,1,1V75.1z"/>
</g>
</svg>
