<?xml version="1.0" encoding="utf-8"?>
<!-- Generator: Adobe Illustrator 21.1.0, SVG Export Plug-In . SVG Version: 6.00 Build 0)  -->
<svg version="1.1" id="Layer_1" xmlns="http://www.w3.org/2000/svg" xmlns:xlink="http://www.w3.org/1999/xlink" x="0px" y="0px"
	 viewBox="0 0 50 100" style="enable-background:new 0 0 50 100;" xml:space="preserve">
<style type="text/css">
	.st0{fill:#FFFFFF;}
</style>
<path class="st0" d="M27.7,13.2c5.7,1.2,9.9,6.5,9.5,12.7c-0.4,6.3-5.8,11.2-12,11.2c-3.2,0-6.2-1.2-8.4-3.4l0,0
	c-2.3-2.2-3.6-5.1-3.7-8.2c-0.1-3,0.9-6,2.9-8.4l1.7-1.7v2.3c0,0.9,0.7,1.6,1.6,1.6h0c0.9,0,1.6-0.7,1.6-1.6V11
	c0-0.4-0.4-0.8-0.8-0.8h-6.9c-0.9,0-1.6,0.7-1.6,1.6v0c0,0.9,0.7,1.6,1.6,1.6h2L13.6,15l-0.1,0.1C11,18,9.7,21.9,9.8,25.7
	c0.1,3.7,1.6,7.2,4.2,9.9l0,0c2.9,3,6.7,4.7,10.8,4.8c8.1,0.2,15-6.1,15.6-14.2c0.6-7.8-4.8-14.6-12.1-16.1c-1-0.2-1.9,0.6-1.9,1.6
	v0C26.4,12.4,26.9,13.1,27.7,13.2z"/>
<path class="st0" d="M27.7,13.2c5.7,1.2,9.9,6.5,9.5,12.7c-0.4,6.3-5.8,11.2-12,11.2c-3.2,0-6.2-1.2-8.4-3.4l0,0
	c-2.3-2.2-3.6-5.1-3.7-8.2c-0.1-3,0.9-6,2.9-8.4l1.7-1.7v2.3c0,0.9,0.7,1.6,1.6,1.6h0c0.9,0,1.6-0.7,1.6-1.6V11
	c0-0.4-0.4-0.8-0.8-0.8h-6.9c-0.9,0-1.6,0.7-1.6,1.6v0c0,0.9,0.7,1.6,1.6,1.6h2L13.6,15l-0.1,0.1C11,18,9.7,21.9,9.8,25.7
	c0.1,3.7,1.6,7.2,4.2,9.9l0,0c2.9,3,6.7,4.7,10.8,4.8c8.1,0.2,15-6.1,15.6-14.2c0.6-7.8-4.8-14.6-12.1-16.1c-1-0.2-1.9,0.6-1.9,1.6
	v0C26.4,12.4,26.9,13.1,27.7,13.2z"/>
<path class="st0" d="M27.7,63.2c5.7,1.2,9.9,6.5,9.5,12.7c-0.4,6.3-5.8,11.2-12,11.2c-3.2,0-6.2-1.2-8.4-3.4l0,0
	c-2.3-2.2-3.6-5.1-3.7-8.2c-0.1-3,0.9-6,2.9-8.4l1.7-1.7v2.3c0,0.9,0.7,1.6,1.6,1.6h0c0.9,0,1.6-0.7,1.6-1.6V61
	c0-0.4-0.4-0.8-0.8-0.8h-6.9c-0.9,0-1.6,0.7-1.6,1.6l0,0c0,0.9,0.7,1.6,1.6,1.6h2L13.6,65l-0.1,0.1C11,68,9.7,71.9,9.8,75.7
	c0.1,3.7,1.6,7.2,4.2,9.9l0,0c2.9,3,6.7,4.7,10.8,4.8c8.1,0.2,15-6.1,15.6-14.2c0.6-7.8-4.8-14.6-12.1-16.1c-1-0.2-1.9,0.6-1.9,1.6
	v0C26.4,62.4,26.9,63.1,27.7,63.2z"/>
</svg>
