<?xml version="1.0" encoding="utf-8"?>
<!-- Generator: Adobe Illustrator 21.1.0, SVG Export Plug-In . SVG Version: 6.00 Build 0)  -->
<svg version="1.1" id="Layer_1" xmlns="http://www.w3.org/2000/svg" xmlns:xlink="http://www.w3.org/1999/xlink" x="0px" y="0px"
	 viewBox="0 0 50 100" style="enable-background:new 0 0 50 100;" xml:space="preserve">
<style type="text/css">
	.st0{fill:#0084FF;}
	.st1{fill:#CCCCCC;}
	.st2{fill:#FFFFFF;}
</style>
<g>
	<g>
		<path class="st0" d="M16.9,36h16.3c1.3,0,2.3,1.1,2.3,2.5s-1,2.5-2.3,2.5H16.9c-1.3,0-2.3-1.1-2.3-2.5S15.6,36,16.9,36z"/>
	</g>
</g>
<g>
	<g>
		<path class="st0" d="M16.9,86h16.3c1.3,0,2.3,1.1,2.3,2.5s-1,2.5-2.3,2.5H16.9c-1.3,0-2.3-1.1-2.3-2.5S15.6,86,16.9,86z"/>
	</g>
</g>
<g>
	<path class="st1" d="M29.1,6.1h-8.7c-1.3,0-2.3,1-2.3,2.2h10.1l5.7,5.7v7.3V24v5.1c1.3,0,2.3-1.1,2.3-2.3v-6.7v-2.6v-4.3L29.1,6.1z
		"/>
	<path class="st1" d="M27.5,10v4c0,0.4,0.3,0.7,0.7,0.7h4L27.5,10z"/>
	<path class="st1" d="M28.1,16.4c-1.3,0-2.4-1.1-2.4-2.4v-4h-9.3c-1.3,0-2.3,1.1-2.3,2.3V21v3v6.7c0,1.3,1.1,2.3,2.3,2.3h4.2h1.7
		h7.5c1.3,0,2.3-1.1,2.3-2.3V24v-2.6v-5H28.1z M30,23.6l-1.8,1.2c-0.2,0.2-0.5,0-0.5-0.3l0-0.7h-4.9l0.9,1.9
		c0.1,0.2,0.3,0.3,0.5,0.3h0.3v-0.5c0-0.2,0.1-0.3,0.3-0.3h1.9c0.2,0,0.3,0.1,0.3,0.3v1.9c0,0.2-0.1,0.3-0.3,0.3h-1.9
		c-0.2,0-0.3-0.1-0.3-0.3v-0.5h-0.3c-0.6,0-1.1-0.3-1.3-0.8l-1.2-2.3h-2.3c-0.2,0.5-0.7,0.9-1.3,0.9c-0.8,0-1.4-0.6-1.4-1.4
		c0-0.8,0.6-1.4,1.4-1.4c0.6,0,1.1,0.4,1.3,0.9H20l1.1-2.2c0.3-0.5,0.8-0.8,1.3-0.8h0.6c0.2-0.5,0.7-0.9,1.3-0.9
		c0.8,0,1.4,0.6,1.4,1.4c0,0.8-0.6,1.4-1.4,1.4c-0.6,0-1.1-0.4-1.3-0.9h-0.6c-0.2,0-0.4,0.1-0.5,0.3L21,22.8h6.7l0-0.7
		c0-0.3,0.3-0.4,0.5-0.3L30,23C30.2,23.1,30.2,23.4,30,23.6z"/>
</g>
<g>
	<path class="st2" d="M29.1,56.1h-8.7c-1.3,0-2.3,1-2.3,2.2h10.1l5.7,5.7v7.3V74v5.1c1.3,0,2.3-1.1,2.3-2.3v-6.7v-2.6v-4.3
		L29.1,56.1z"/>
	<path class="st2" d="M27.5,60v4c0,0.4,0.3,0.7,0.7,0.7h4L27.5,60z"/>
	<path class="st2" d="M28.1,66.4c-1.3,0-2.4-1.1-2.4-2.4v-4h-9.3c-1.3,0-2.3,1.1-2.3,2.3V71v3v6.7c0,1.3,1.1,2.3,2.3,2.3h4.2h1.7
		h7.5c1.3,0,2.3-1.1,2.3-2.3V74v-2.6v-5H28.1z M30,73.6l-1.8,1.2c-0.2,0.2-0.5,0-0.5-0.3l0-0.7h-4.9l0.9,1.9
		c0.1,0.2,0.3,0.3,0.5,0.3h0.3v-0.5c0-0.2,0.1-0.3,0.3-0.3h1.9c0.2,0,0.3,0.1,0.3,0.3v1.9c0,0.2-0.1,0.3-0.3,0.3h-1.9
		c-0.2,0-0.3-0.1-0.3-0.3v-0.5h-0.3c-0.6,0-1.1-0.3-1.3-0.8l-1.2-2.3h-2.3c-0.2,0.5-0.7,0.9-1.3,0.9c-0.8,0-1.4-0.6-1.4-1.4
		c0-0.8,0.6-1.4,1.4-1.4c0.6,0,1.1,0.4,1.3,0.9H20l1.1-2.2c0.3-0.5,0.8-0.8,1.3-0.8h0.6c0.2-0.5,0.7-0.9,1.3-0.9
		c0.8,0,1.4,0.6,1.4,1.4c0,0.8-0.6,1.4-1.4,1.4c-0.6,0-1.1-0.4-1.3-0.9h-0.6c-0.2,0-0.4,0.1-0.5,0.3L21,72.8h6.7l0-0.7
		c0-0.3,0.3-0.4,0.5-0.3L30,73C30.2,73.1,30.2,73.4,30,73.6z"/>
</g>
</svg>
