<?xml version="1.0" encoding="utf-8"?>
<!-- Generator: Adobe Illustrator 21.1.0, SVG Export Plug-In . SVG Version: 6.00 Build 0)  -->
<svg version="1.1" id="Layer_1" xmlns="http://www.w3.org/2000/svg" xmlns:xlink="http://www.w3.org/1999/xlink" x="0px" y="0px"
	 viewBox="0 0 50 100" style="enable-background:new 0 0 50 100;" xml:space="preserve">
<style type="text/css">
	.st0{fill:#CCCCCC;}
	.st1{fill:#FFFFFF;}
</style>
<g>
	<path class="st0" d="M21.4,33.9c-6.7,0-12.2-5.5-12.2-12.2S14.7,9.5,21.4,9.5s12.2,5.5,12.2,12.2S28.2,33.9,21.4,33.9z M21.4,13.2
		c-4.7,0-8.4,3.8-8.4,8.4c0,4.7,3.8,8.4,8.4,8.4c4.7,0,8.4-3.8,8.4-8.4C29.9,17,26.1,13.2,21.4,13.2z"/>
	<path class="st0" d="M38,40c-0.5,0-1-0.2-1.3-0.6l-9.1-9.2c-0.7-0.7-0.7-1.9,0-2.7c0.7-0.7,1.9-0.7,2.7,0l9.1,9.2
		c0.7,0.7,0.7,1.9,0,2.7C38.9,39.8,38.4,40,38,40z"/>
</g>
<g>
	<path class="st1" d="M21.4,83.9c-6.7,0-12.2-5.5-12.2-12.2c0-6.7,5.5-12.2,12.2-12.2s12.2,5.5,12.2,12.2
		C33.7,78.4,28.2,83.9,21.4,83.9z M21.4,63.2c-4.7,0-8.4,3.8-8.4,8.4c0,4.7,3.8,8.4,8.4,8.4c4.7,0,8.4-3.8,8.4-8.4
		C29.9,67,26.1,63.2,21.4,63.2z"/>
	<path class="st1" d="M38,90c-0.5,0-1-0.2-1.3-0.6l-9.1-9.2c-0.7-0.7-0.7-1.9,0-2.7c0.7-0.7,1.9-0.7,2.7,0l9.1,9.2
		c0.7,0.7,0.7,1.9,0,2.7C38.9,89.8,38.4,90,38,90z"/>
</g>
</svg>
